<?xml version="1.0" encoding="utf-8"?>
<!-- Generator: Adobe Illustrator 17.1.0, SVG Export Plug-In . SVG Version: 6.00 Build 0)  -->
<!DOCTYPE svg PUBLIC "-//W3C//DTD SVG 1.1//EN" "http://www.w3.org/Graphics/SVG/1.1/DTD/svg11.dtd">
<svg version="1.1" xmlns="http://www.w3.org/2000/svg" xmlns:xlink="http://www.w3.org/1999/xlink" x="0px" y="0px"
	 viewBox="0 189 500 117" enable-background="new 0 189 500 117" xml:space="preserve">
<g id="Layer_1">
	<g>
		<path fill="#FFFFFF" d="M199.9,288.7c0,1.8-0.3,3.5-0.8,5c-0.6,1.6-1.4,2.8-2.4,3.8c-1,1-2.3,1.8-3.8,2.4c-1.4,0.6-3.1,0.8-5,0.8
			h-9.1v-24.2h9.1c1.8,0,3.4,0.3,5,0.8c1.4,0.6,2.7,1.4,3.8,2.5c1,1.1,1.8,2.4,2.4,3.8C199.6,285.1,199.9,286.8,199.9,288.7z
			 M196.5,288.7c0-1.6-0.1-2.8-0.6-4s-1-2.1-1.7-3s-1.7-1.4-2.7-1.8s-2.3-0.7-3.5-0.7h-5.8v19h5.8c1.3,0,2.5-0.3,3.5-0.7
			c1-0.4,2-1,2.7-1.8s1.3-1.8,1.7-3C196.3,291.5,196.5,290.1,196.5,288.7z"/>
		<path fill="#FFFFFF" d="M223.8,300.8h-2.5c-0.3,0-0.6-0.1-0.7-0.3c-0.1-0.1-0.3-0.3-0.4-0.6l-2.3-5.9h-11l-2.3,5.9
			c0,0.1-0.1,0.4-0.4,0.6c-0.1,0.1-0.4,0.3-0.7,0.3h-2.5l9.8-24.4h3.4L223.8,300.8z M207.8,291.8h9.1l-3.8-9.9
			c-0.1-0.3-0.3-0.6-0.4-1c-0.1-0.4-0.3-0.8-0.4-1.3c-0.1,0.4-0.3,0.8-0.3,1.3c-0.1,0.4-0.3,0.7-0.4,1L207.8,291.8z"/>
		<path fill="#FFFFFF" d="M222.1,276.5h2.7c0.3,0,0.6,0.1,0.7,0.3c0.1,0.1,0.3,0.3,0.4,0.6l6.8,17.1c0.1,0.4,0.3,0.8,0.4,1.3
			s0.3,1,0.4,1.4c0.1-0.4,0.3-1,0.3-1.4c0.1-0.4,0.3-0.8,0.4-1.3l6.8-17.1c0-0.1,0.1-0.4,0.4-0.6c0.1-0.1,0.4-0.3,0.7-0.3h2.7
			l-9.9,24.4h-3L222.1,276.5z"/>
		<path fill="#FFFFFF" d="M251.4,300.8h-3.3v-24.4h3.3V300.8z"/>
		<path fill="#FFFFFF" d="M259.8,276.5c0.1,0,0.1,0,0.3,0.1c0.1,0,0.1,0.1,0.3,0.1c0.1,0.1,0.1,0.1,0.3,0.3l14,18.3
			c0-0.3,0-0.6,0-0.8c0-0.3,0-0.6,0-0.8v-17.1h2.8v24.4h-1.7c-0.3,0-0.4,0-0.7-0.1c-0.1-0.1-0.3-0.3-0.6-0.4l-14-18.4
			c0,0.3,0,0.6,0,0.8s0,0.6,0,0.7v17.4h-2.8v-24.4h1.7C259.5,276.5,259.6,276.5,259.8,276.5z"/>
		<path fill="#FFFFFF" d="M303.4,300.8h-2.5c-0.3,0-0.6-0.1-0.7-0.3c-0.1-0.1-0.3-0.3-0.4-0.6l-2.3-5.9h-10.9l-2.3,5.9
			c0,0.1-0.1,0.4-0.4,0.6c-0.1,0.1-0.4,0.3-0.7,0.3h-2.5l9.8-24.4h3.4L303.4,300.8z M287.4,291.8h9.1l-3.8-9.9
			c-0.1-0.3-0.3-0.6-0.4-1c-0.1-0.4-0.3-0.8-0.4-1.3c-0.1,0.4-0.3,0.8-0.3,1.3c-0.1,0.4-0.3,0.7-0.4,1L287.4,291.8z"/>
		<path fill="#FFFFFF" d="M332.9,300.8h-2.5c-0.3,0-0.6-0.1-0.7-0.3c-0.1-0.1-0.3-0.3-0.4-0.6l-2.3-5.9H316l-2.3,5.9
			c0,0.1-0.1,0.4-0.4,0.6c-0.1,0.1-0.4,0.3-0.7,0.3h-2.5l9.8-24.4h3.4L332.9,300.8z M316.9,291.8h9.1l-3.8-9.9
			c-0.1-0.3-0.3-0.6-0.4-1c-0.1-0.4-0.3-0.8-0.4-1.3c-0.1,0.4-0.3,0.8-0.3,1.3c-0.1,0.4-0.3,0.7-0.4,1L316.9,291.8z"/>
		<path fill="#FFFFFF" d="M348.4,292.9c0.1,0.3,0.3,0.6,0.4,0.8c0.1-0.3,0.3-0.6,0.4-0.8c0.1-0.3,0.3-0.6,0.4-0.8l8.2-15
			c0.1-0.3,0.3-0.4,0.4-0.4s0.4-0.1,0.7-0.1h2.4v24.4h-2.8v-18c0-0.3,0-0.4,0-0.7c0-0.3,0-0.6,0-0.8l-8.4,15.3
			c-0.3,0.6-0.7,0.7-1.1,0.7h-0.4c-0.6,0-1-0.3-1.1-0.7l-8.5-15.3c0,0.3,0,0.6,0.1,0.8c0,0.3,0,0.6,0,0.8v17.8h-2.8v-24.4h2.4
			c0.3,0,0.6,0,0.7,0.1c0.1,0,0.3,0.3,0.4,0.4l8.4,15C348.2,292.2,348.3,292.5,348.4,292.9z"/>
		<path fill="#FFFFFF" d="M371,300.8h-3.3v-24.4h3.3V300.8z"/>
		<path fill="#FFFFFF" d="M380.5,290.7v10.2h-3.3v-24.4h6.9c1.6,0,2.8,0.1,4,0.4c1.1,0.3,2,0.7,2.8,1.4c0.7,0.6,1.3,1.3,1.6,2.1
			s0.6,1.7,0.6,2.8c0,0.8-0.1,1.7-0.4,2.4c-0.3,0.7-0.7,1.4-1.1,2c-0.6,0.6-1.1,1.1-1.8,1.6c-0.7,0.4-1.6,0.7-2.5,1
			c0.4,0.3,0.8,0.6,1.1,1l7.1,9.6h-3c-0.6,0-1-0.3-1.3-0.7l-6.4-8.6c-0.1-0.3-0.4-0.4-0.6-0.6c-0.1-0.1-0.6-0.1-1-0.1h-2.7V290.7z
			 M380.5,288.2h3.4c1,0,1.8-0.1,2.5-0.3c0.7-0.3,1.3-0.6,1.8-1c0.4-0.4,0.8-1,1.1-1.6c0.3-0.6,0.4-1.3,0.4-2c0-1.4-0.4-2.5-1.4-3.3
			s-2.4-1.1-4.2-1.1h-3.5v9.2H380.5z"/>
		<path fill="#FFFFFF" d="M401.7,300.8h-3.3v-24.4h3.3V300.8z"/>
		<path fill="#FFFFFF" d="M420,298h10.5v2.8h-13.9v-24.4h3.3V298H420z"/>
		<path fill="#FFFFFF" d="M454,300.8h-2.5c-0.3,0-0.6-0.1-0.7-0.3c-0.1-0.1-0.3-0.3-0.4-0.6l-2.3-5.9h-10.9l-2.3,5.9
			c0,0.1-0.1,0.4-0.4,0.6c-0.1,0.1-0.4,0.3-0.7,0.3h-2.5l9.8-24.4h3.4L454,300.8z M438,291.8h9.1l-3.8-9.9c-0.1-0.3-0.3-0.6-0.4-1
			c-0.1-0.4-0.3-0.8-0.4-1.3c-0.1,0.4-0.3,0.8-0.3,1.3c-0.1,0.4-0.3,0.7-0.4,1L438,291.8z"/>
		<path fill="#FFFFFF" d="M453.1,276.5h2.7c0.3,0,0.6,0.1,0.7,0.3c0.1,0.1,0.3,0.3,0.4,0.6l5.1,17c0.1,0.3,0.1,0.6,0.3,1
			c0.1,0.3,0.1,0.7,0.3,1.1c0.1-0.4,0.1-0.7,0.3-1.1c0.1-0.4,0.1-0.7,0.3-1l5.7-17c0-0.1,0.1-0.4,0.4-0.6c0.1-0.1,0.4-0.3,0.7-0.3h1
			c0.3,0,0.6,0.1,0.7,0.3c0.1,0.1,0.3,0.3,0.4,0.6l5.7,17c0.1,0.3,0.1,0.6,0.3,1c0.1,0.3,0.1,0.7,0.3,1c0-0.4,0.1-0.7,0.1-1
			c0-0.3,0.1-0.7,0.3-1l5.1-17c0-0.1,0.1-0.4,0.4-0.6c0.1-0.1,0.4-0.3,0.7-0.3h2.5l-7.6,24.4h-3l-6.2-18.6c-0.1-0.3-0.3-0.7-0.3-1.3
			c0,0.3-0.1,0.4-0.1,0.7c0,0.1-0.1,0.4-0.1,0.6l-6.2,18.6h-3L453.1,276.5z"/>
	</g>
</g>
<g id="Layer_2">
	<g>
		<rect x="12" y="198" fill="#49BACB" width="14.3" height="102.2"/>
		<path fill="#49BACB" d="M25.7,198l25.5,0c15.4,1.7,26.4,6.1,35.3,14.1l8.4-18.1l0.7,24l-1.4,3c16.8,26.8,7.9,72.9-37.6,77.9
			c-11.3,1.2-15.5,1.1-15.5,1.1l38.1-74.8c-13.6-14-26-14.2-30.3-14.7l-23.3,0L25.7,198z"/>
		<polygon fill="#49BACB" points="95,194 156.2,300.3 140.9,300.3 95.7,218 92.4,212.4 		"/>
	</g>
</g>
</svg>
