<?xml version="1.0" encoding="utf-8"?>
<!-- Generator: Adobe Illustrator 17.1.0, SVG Export Plug-In . SVG Version: 6.00 Build 0)  -->
<!DOCTYPE svg PUBLIC "-//W3C//DTD SVG 1.1//EN" "http://www.w3.org/Graphics/SVG/1.1/DTD/svg11.dtd">
<svg version="1.1" id="Layer_1" xmlns="http://www.w3.org/2000/svg" xmlns:xlink="http://www.w3.org/1999/xlink" x="0px" y="0px"
	 viewBox="0 0 353 97" enable-background="new 0 0 353 97" xml:space="preserve">
<g>
	<g>
		<rect x="8.4" y="11.2" fill="#4ABBCD" width="10.3" height="73.4"/>
		<path fill="#4ABBCD" d="M18.2,11.2l18.3,0c11,1.2,19,4.4,25.4,10.1l6-13l0.5,17.2l-1,2.2c12.1,19.2,5.7,52.3-27,55.9
			c-8.1,0.9-11.2,0.8-11.2,0.8l27.4-53.7c-9.8-10-18.6-10.2-21.7-10.6l-16.7,0L18.2,11.2z"/>
		<polygon fill="#4ABBCD" points="68,8.4 112,84.7 101,84.7 68.5,25.6 66.2,21.6 		"/>
	</g>
	<g>
		<path fill="#FFFFFF" d="M141.1,75.8c0,1.3-0.2,2.5-0.6,3.5c-0.4,1.1-1,2-1.7,2.7s-1.6,1.3-2.7,1.7c-1,0.4-2.2,0.6-3.5,0.6h-6.4
			V67.2h6.4c1.3,0,2.4,0.2,3.5,0.6c1,0.4,1.9,1,2.7,1.8c0.7,0.8,1.3,1.7,1.7,2.7S141.1,74.5,141.1,75.8z M138.7,75.8
			c0-1.1-0.1-2-0.4-2.8s-0.7-1.5-1.2-2.1c-0.5-0.6-1.2-1-1.9-1.3s-1.6-0.5-2.5-0.5h-4.1v13.4h4.1c0.9,0,1.8-0.2,2.5-0.5
			s1.4-0.7,1.9-1.3c0.5-0.6,0.9-1.3,1.2-2.1S138.7,76.8,138.7,75.8z"/>
		<path fill="#FFFFFF" d="M158,84.4h-1.8c-0.2,0-0.4-0.1-0.5-0.2s-0.2-0.2-0.3-0.4l-1.6-4.2H146l-1.6,4.2c0,0.1-0.1,0.3-0.3,0.4
			c-0.1,0.1-0.3,0.2-0.5,0.2h-1.8l6.9-17.2h2.4L158,84.4z M146.7,78h6.4l-2.7-7c-0.1-0.2-0.2-0.4-0.3-0.7s-0.2-0.6-0.3-0.9
			c-0.1,0.3-0.2,0.6-0.2,0.9c-0.1,0.3-0.2,0.5-0.3,0.7L146.7,78z"/>
		<path fill="#FFFFFF" d="M156.8,67.2h1.9c0.2,0,0.4,0.1,0.5,0.2s0.2,0.2,0.3,0.4l4.8,12.1c0.1,0.3,0.2,0.6,0.3,0.9
			c0.1,0.3,0.2,0.7,0.3,1c0.1-0.3,0.2-0.7,0.2-1c0.1-0.3,0.2-0.6,0.3-0.9l4.8-12.1c0-0.1,0.1-0.3,0.3-0.4c0.1-0.1,0.3-0.2,0.5-0.2
			h1.9l-7,17.2h-2.1L156.8,67.2z"/>
		<path fill="#FFFFFF" d="M177.5,84.4h-2.3V67.2h2.3V84.4z"/>
		<path fill="#FFFFFF" d="M183.4,67.2c0.1,0,0.1,0,0.2,0.1c0.1,0,0.1,0.1,0.2,0.1c0.1,0.1,0.1,0.1,0.2,0.2l9.9,12.9
			c0-0.2,0-0.4,0-0.6c0-0.2,0-0.4,0-0.6V67.2h2v17.2h-1.2c-0.2,0-0.3,0-0.5-0.1c-0.1-0.1-0.2-0.2-0.4-0.3L183.9,71
			c0,0.2,0,0.4,0,0.6c0,0.2,0,0.4,0,0.5v12.3h-2V67.2h1.2C183.2,67.2,183.3,67.2,183.4,67.2z"/>
		<path fill="#FFFFFF" d="M214.2,84.4h-1.8c-0.2,0-0.4-0.1-0.5-0.2s-0.2-0.2-0.3-0.4l-1.6-4.2h-7.7l-1.6,4.2c0,0.1-0.1,0.3-0.3,0.4
			c-0.1,0.1-0.3,0.2-0.5,0.2h-1.8l6.9-17.2h2.4L214.2,84.4z M202.9,78h6.4l-2.7-7c-0.1-0.2-0.2-0.4-0.3-0.7s-0.2-0.6-0.3-0.9
			c-0.1,0.3-0.2,0.6-0.2,0.9c-0.1,0.3-0.2,0.5-0.3,0.7L202.9,78z"/>
		<path fill="#FFFFFF" d="M235,84.4h-1.8c-0.2,0-0.4-0.1-0.5-0.2s-0.2-0.2-0.3-0.4l-1.6-4.2h-7.7l-1.6,4.2c0,0.1-0.1,0.3-0.3,0.4
			c-0.1,0.1-0.3,0.2-0.5,0.2h-1.8l6.9-17.2h2.4L235,84.4z M223.7,78h6.4l-2.7-7c-0.1-0.2-0.2-0.4-0.3-0.7s-0.2-0.6-0.3-0.9
			c-0.1,0.3-0.2,0.6-0.2,0.9c-0.1,0.3-0.2,0.5-0.3,0.7L223.7,78z"/>
		<path fill="#FFFFFF" d="M246,78.8c0.1,0.2,0.2,0.4,0.3,0.6c0.1-0.2,0.2-0.4,0.3-0.6s0.2-0.4,0.3-0.6l5.8-10.6
			c0.1-0.2,0.2-0.3,0.3-0.3c0.1,0,0.3-0.1,0.5-0.1h1.7v17.2h-2V71.7c0-0.2,0-0.3,0-0.5c0-0.2,0-0.4,0-0.6l-5.9,10.8
			c-0.2,0.4-0.5,0.5-0.8,0.5h-0.3c-0.4,0-0.7-0.2-0.8-0.5l-6-10.8c0,0.2,0,0.4,0.1,0.6c0,0.2,0,0.4,0,0.6v12.6h-2V67.2h1.7
			c0.2,0,0.4,0,0.5,0.1c0.1,0,0.2,0.2,0.3,0.3l5.9,10.6C245.8,78.3,245.9,78.5,246,78.8z"/>
		<path fill="#FFFFFF" d="M261.9,84.4h-2.3V67.2h2.3V84.4z"/>
		<path fill="#FFFFFF" d="M268.6,77.2v7.2h-2.3V67.2h4.9c1.1,0,2,0.1,2.8,0.3c0.8,0.2,1.4,0.5,2,1c0.5,0.4,0.9,0.9,1.1,1.5
			c0.2,0.6,0.4,1.2,0.4,2c0,0.6-0.1,1.2-0.3,1.7c-0.2,0.5-0.5,1-0.8,1.4c-0.4,0.4-0.8,0.8-1.3,1.1c-0.5,0.3-1.1,0.5-1.8,0.7
			c0.3,0.2,0.6,0.4,0.8,0.7l5,6.8h-2.1c-0.4,0-0.7-0.2-0.9-0.5l-4.5-6.1c-0.1-0.2-0.3-0.3-0.4-0.4s-0.4-0.1-0.7-0.1H268.6z
			 M268.6,75.5h2.4c0.7,0,1.3-0.1,1.8-0.2c0.5-0.2,0.9-0.4,1.3-0.7c0.3-0.3,0.6-0.7,0.8-1.1c0.2-0.4,0.3-0.9,0.3-1.4
			c0-1-0.3-1.8-1-2.3s-1.7-0.8-3-0.8h-2.5V75.5z"/>
		<path fill="#FFFFFF" d="M283.6,84.4h-2.3V67.2h2.3V84.4z"/>
		<path fill="#FFFFFF" d="M296.5,82.4h7.4v2h-9.8V67.2h2.3V82.4z"/>
		<path fill="#FFFFFF" d="M320.5,84.4h-1.8c-0.2,0-0.4-0.1-0.5-0.2s-0.2-0.2-0.3-0.4l-1.6-4.2h-7.7l-1.6,4.2c0,0.1-0.1,0.3-0.3,0.4
			c-0.1,0.1-0.3,0.2-0.5,0.2h-1.8l6.9-17.2h2.4L320.5,84.4z M309.2,78h6.4l-2.7-7c-0.1-0.2-0.2-0.4-0.3-0.7s-0.2-0.6-0.3-0.9
			c-0.1,0.3-0.2,0.6-0.2,0.9c-0.1,0.3-0.2,0.5-0.3,0.7L309.2,78z"/>
		<path fill="#FFFFFF" d="M319.9,67.2h1.9c0.2,0,0.4,0.1,0.5,0.2c0.1,0.1,0.2,0.2,0.3,0.4l3.6,12c0.1,0.2,0.1,0.4,0.2,0.7
			c0.1,0.2,0.1,0.5,0.2,0.8c0.1-0.3,0.1-0.5,0.2-0.8c0.1-0.3,0.1-0.5,0.2-0.7l4-12c0-0.1,0.1-0.3,0.3-0.4c0.1-0.1,0.3-0.2,0.5-0.2
			h0.7c0.2,0,0.4,0.1,0.5,0.2s0.2,0.2,0.3,0.4l4,12c0.1,0.2,0.1,0.4,0.2,0.7c0.1,0.2,0.1,0.5,0.2,0.7c0-0.3,0.1-0.5,0.1-0.7
			c0-0.2,0.1-0.5,0.2-0.7l3.6-12c0-0.1,0.1-0.3,0.3-0.4c0.1-0.1,0.3-0.2,0.5-0.2h1.8l-5.4,17.2h-2.1l-4.4-13.1
			c-0.1-0.2-0.2-0.5-0.2-0.9c0,0.2-0.1,0.3-0.1,0.5c0,0.1-0.1,0.3-0.1,0.4l-4.4,13.1h-2.1L319.9,67.2z"/>
	</g>
</g>
</svg>
